<svg xmlns="http://www.w3.org/2000/svg"
     viewBox="0 0 500 650" fill="white">
  <path id="Selection"
        stroke-width="1"
        d="M 23.02,24.65
           C 23.02,24.65 62.00,24.00 62.00,24.00
             62.00,24.00 138.00,24.00 138.00,24.00
             138.00,24.00 378.00,24.00 378.00,24.00
             378.00,24.00 457.00,24.00 457.00,24.00
             464.71,24.00 479.39,21.64 482.99,30.04
             484.15,32.75 484.00,36.10 484.00,39.00
             484.00,39.00 484.00,489.00 484.00,489.00
             484.00,489.00 484.00,593.00 484.00,593.00
             484.00,597.87 484.47,615.52 483.35,618.98
             482.68,621.07 481.59,622.72 479.79,623.99
             476.62,626.23 472.68,625.99 469.00,626.00
             469.00,626.00 121.00,626.00 121.00,626.00
             121.00,626.00 42.00,626.00 42.00,626.00
             33.98,626.00 19.72,628.50 16.65,618.98
             15.90,616.65 16.00,613.47 16.00,611.00
             16.00,611.00 16.00,165.00 16.00,165.00
             16.00,165.00 16.00,60.00 16.00,60.00
             16.00,60.00 16.00,38.00 16.00,38.00
             16.02,34.97 15.93,31.84 17.45,29.10
             18.95,26.41 20.37,25.82 23.02,24.65 Z
           M 463.00,45.00
           C 463.00,45.00 37.00,45.00 37.00,45.00
             37.00,45.00 37.00,605.00 37.00,605.00
             37.00,605.00 463.00,605.00 463.00,605.00
             463.00,605.00 463.00,45.00 463.00,45.00 Z
           M 350.00,68.00
           C 350.00,68.00 440.00,68.00 440.00,68.00
             440.00,68.00 440.00,128.00 440.00,128.00
             440.00,128.00 439.00,159.00 439.00,159.00
             432.49,155.92 422.69,144.69 417.07,139.16
             417.07,139.16 371.17,93.28 371.17,93.28
             371.17,93.28 351.43,72.91 351.43,72.91
             350.32,71.00 350.32,70.07 350.00,68.00 Z
           M 173.00,114.00
           C 173.00,114.00 240.00,114.00 240.00,114.00
             240.00,114.00 243.58,126.00 243.58,126.00
             243.58,126.00 254.28,161.00 254.28,161.00
             254.28,161.00 284.28,259.00 284.28,259.00
             284.28,259.00 293.34,289.00 293.34,289.00
             293.34,289.00 297.72,300.40 297.72,300.40
             297.72,300.40 306.00,302.00 306.00,302.00
             306.00,302.00 401.00,302.00 401.00,302.00
             401.00,302.00 401.00,455.00 401.00,455.00
             400.94,491.06 380.20,519.18 346.00,530.33
             338.55,532.76 327.81,534.90 320.00,535.00
             320.00,535.00 301.00,535.00 301.00,535.00
             278.04,534.96 258.77,526.50 240.00,514.00
             240.00,514.00 254.95,489.00 254.95,489.00
             256.46,486.60 259.00,481.38 262.09,481.10
             264.03,480.93 275.95,487.82 279.00,489.13
             288.84,493.34 296.51,494.05 307.00,494.00
             335.47,493.87 346.96,471.54 347.00,446.00
             347.00,446.00 347.00,342.00 347.00,342.00
             347.00,342.00 259.00,342.00 259.00,342.00
             259.00,342.00 250.93,340.40 250.93,340.40
             250.93,340.40 246.87,327.00 246.87,327.00
             246.87,327.00 239.00,293.00 239.00,293.00
             239.00,293.00 173.00,293.00 173.00,293.00
             173.00,293.00 165.12,327.00 165.12,327.00
             165.12,327.00 161.07,340.40 161.07,340.40
             161.07,340.40 153.00,342.00 153.00,342.00
             153.00,342.00 104.00,342.00 104.00,342.00
             104.00,342.00 122.98,279.00 122.98,279.00
             122.98,279.00 158.02,164.00 158.02,164.00
             158.02,164.00 173.00,114.00 173.00,114.00 Z
           M 206.00,157.00
           C 206.00,157.00 197.63,189.00 197.63,189.00
             197.63,189.00 182.00,253.00 182.00,253.00
             182.00,253.00 230.00,253.00 230.00,253.00
             230.00,253.00 212.37,182.00 212.37,182.00
             212.37,182.00 206.00,157.00 206.00,157.00 Z
           M 61.00,492.00
           C 68.02,494.06 77.54,505.54 83.00,511.00
             83.00,511.00 130.00,558.00 130.00,558.00
             135.77,563.77 147.71,573.05 149.00,581.00
             149.00,581.00 61.00,581.00 61.00,581.00
             61.00,581.00 61.00,492.00 61.00,492.00 Z" />
</svg>
